PathFileType	4	(X/Y/Z)	/Users/niels/Desktop/University/Third Semester/Perception and Action/Exam/Gymnastics Motion Tracking/Code for Gym Tracking/Analyzed Data/Webcam_Backflip/id3_2_trajectory_Sports2D/id3_2_trajectory_Sports2D_px_person00.trc
DataRate	CameraRate	NumFrames	NumMarkers	Units	OrigDataRate	OrigDataStartFrame	OrigNumFrames
29.8125	29.8125	12	22	m	29.8125	80	160
Frame#	Time	Hip			RHip			RKnee			RAnkle			RBigToe			RSmallToe			RHeel			LHip			LKnee			LAnkle			LBigToe			LSmallToe			LHeel			Neck			Head			Nose			RShoulder			RElbow			RWrist			LShoulder			LElbow			LWrist		
		X1	Y1	Z1	X2	Y2	Z2	X3	Y3	Z3	X4	Y4	Z4	X5	Y5	Z5	X6	Y6	Z6	X7	Y7	Z7	X8	Y8	Z8	X9	Y9	Z9	X10	Y10	Z10	X11	Y11	Z11	X12	Y12	Z12	X13	Y13	Z13	X14	Y14	Z14	X15	Y15	Z15	X16	Y16	Z16	X17	Y17	Z17	X18	Y18	Z18	X19	Y19	Z19	X20	Y20	Z20	X21	Y21	Z21	X22	Y22	Z22
80	2.683438155136268	1.0065586279737875	-0.5173297828154498	0.0	1.008592943389571	-0.5174581514152266	0.0	1.0145513187064774	-0.6416623383246518	0.0	0.989203322939416	-0.7622669081511022	0.0	1.022621333840776	-0.7929878464006163	0.0	1.0143748212886212	-0.7946629284964175	0.0	0.9764666645358985	-0.7802166236624017	0.0	1.0060966989530902	-0.5149134697607182	0.0	1.011443751987189	-0.6397920170526177	0.0	0.990775884425407	-0.7558608664977697	0.0	1.0304989450956472	-0.7852054955008244	0.0	1.0175911830383348	-0.7825753455132866	0.0	0.9754995544639733	-0.7671900983723208	0.0	1.1110357737226726	-0.4035209885686855	0.0	1.1800386008121344	-0.35393689823591923	0.0	1.1611272385625422	-0.398864241909309	0.0	1.1010212669480788	-0.42306935302005033	0.0	1.1348607110804856	-0.4892356525346932	0.0	1.1961038719367767	-0.5215492696419971	0.0	1.098954510387846	-0.4000144545196498	0.0	1.1309060050438127	-0.4558447403743784	0.0	1.1791334073051167	-0.48259319715229887	0.0
81	2.716981132075471	1.0113380051317604	-0.5625556984128086	0.0	1.0142457723562694	-0.563060369836137	0.0	1.0217940987927485	-0.6861084033389613	0.0	0.9979345394958605	-0.8059009485675308	0.0	1.0324789300256991	-0.831039353911525	0.0	1.025700089087187	-0.8325104984103525	0.0	0.9865092297184609	-0.8249605099811572	0.0	1.0098370219546526	-0.5600725472749859	0.0	1.0178688386124017	-0.6839752071101326	0.0	0.9985526034844685	-0.8004570505132709	0.0	1.0405679018126546	-0.8246686316792309	0.0	1.0240547596062308	-0.8232850140408992	0.0	0.9841291191320306	-0.810535228716007	0.0	1.0963927468741426	-0.4318453237710757	0.0	1.1552461342046194	-0.3724914248435493	0.0	1.1445044611667292	-0.41970436127174826	0.0	1.0895178095682714	-0.45106851459586483	0.0	1.1425774013244807	-0.4990930498406675	0.0	1.2094141468574315	-0.5090343477090442	0.0	1.0852226006132861	-0.4309471798308882	0.0	1.1350804669171815	-0.46786055647398206	0.0	1.1900383284442146	-0.4755167258815566	0.0
82	2.7505241090146746	1.0162611208372403	-0.6020036060265446	0.0	1.0195105812007283	-0.6028402749246673	0.0	1.0281821417475128	-0.7245607163203056	0.0	1.0016526478741288	-0.8409770350796621	0.0	1.0373173257856534	-0.860765199623229	0.0	1.031711896704049	-0.8617306081401858	0.0	0.9906693593642623	-0.8589164905787945	0.0	1.0139528984893331	-0.5995708778746721	0.0	1.023338909198165	-0.7223471657708951	0.0	1.0017147836039517	-0.8370050613876903	0.0	1.045918328712406	-0.8564049371663087	0.0	1.0257716434680442	-0.8559170095148391	0.0	0.9869279134370521	-0.8453125259716942	0.0	1.083654902379577	-0.46040993204296266	0.0	1.1322152271791313	-0.3940592922540601	0.0	1.1292938867243565	-0.44203490664411643	0.0	1.0793587526135335	-0.47844765576506754	0.0	1.1458056969689097	-0.5054585490222013	0.0	1.2132141569730555	-0.49360215611959785	0.0	1.0733429870428464	-0.46210405594777226	0.0	1.136149070265855	-0.4790159996079728	0.0	1.1937037959694858	-0.4683178807543343	0.0
83	2.784067085953878	1.020271757131395	-0.6322528518039651	0.0	1.0234284597166832	-0.6331455121555531	0.0	1.0341936394532847	-0.7534712172410634	0.0	1.0018846091178073	-0.8646098555368924	0.0	1.0378535916791283	-0.8799304336373156	0.0	1.0330772815819222	-0.880300427324017	0.0	0.9904840665674646	-0.8796907206374576	0.0	1.0174357088932011	-0.6297503503158767	0.0	1.0283144274598057	-0.751208001911886	0.0	1.0018862027247282	-0.8621128367750062	0.0	1.0473928567150947	-0.8773708449257471	0.0	1.0239455320710502	-0.8773506948526998	0.0	0.9859178211927616	-0.8691188218221838	0.0	1.0744209963938964	-0.48521103916960057	0.0	1.1139194568336765	-0.41449414674276225	0.0	1.1174638167009083	-0.4620185079546737	0.0	1.0720923419754085	-0.5016893890927979	0.0	1.1461166920129393	-0.5090808809839737	0.0	1.2108857653051406	-0.4792426713010936	0.0	1.0646861683285302	-0.48923199610419366	0.0	1.135489038143391	-0.48888305088560224	0.0	1.192715221638103	-0.4630698667453631	0.0
84	2.817610062893081	1.0229027916932154	-0.6509162726503399	0.0	1.02565882734684	-0.6515569810645047	0.0	1.0411502795493028	-0.7699038771379406	0.0	1.0003404490189653	-0.8736734410149635	0.0	1.034757902219667	-0.8870624978768971	0.0	1.0306448543128786	-0.8868134095310404	0.0	0.9879426775806425	-0.8856060763613508	0.0	1.0198874097900583	-0.6481440088130055	0.0	1.0341579831320067	-0.7674474160092638	0.0	1.0007199710102979	-0.8721370087548769	0.0	1.0457876558092551	-0.8854695766975309	0.0	1.0204386728896087	-0.885503513850751	0.0	0.9833085191538374	-0.8788920844480004	0.0	1.0697137508984804	-0.5024681406752339	0.0	1.102268419539013	-0.4295977750984737	0.0	1.1103268804369308	-0.4760109390957031	0.0	1.0688253534416823	-0.5174600999859594	0.0	1.1458140271195745	-0.5102796373827038	0.0	1.207070990745205	-0.46820911488193384	0.0	1.0600556859050219	-0.5083645228860966	0.0	1.134801873556302	-0.49648511784349414	0.0	1.1902687570207877	-0.46048061307973726	0.0
85	2.8511530398322846	1.0244181753909778	-0.6572428898244221	0.0	1.0265254828380495	-0.657504562716326	0.0	1.0506344671228418	-0.7721088659222353	0.0	0.9988350554739763	-0.866333523504366	0.0	1.0294954915319765	-0.8814070576854403	0.0	1.026033271432503	-0.8805180651338443	0.0	0.9852692280750941	-0.8758809540915631	0.0	1.0216491281595834	-0.6541416641435198	0.0	1.0425272396828875	-0.7692644979330668	0.0	0.9998208366864223	-0.864938613701594	0.0	1.0421511447427292	-0.879717077148707	0.0	1.0173613964745916	-0.8794456670678403	0.0	0.9811756767151909	-0.8721641530737607	0.0	1.0697208166531933	-0.5097559245248526	0.0	1.0975458027010883	-0.4362671122091348	0.0	1.108264417594056	-0.48148445850406035	0.0	1.069898712813964	-0.523725803997457	0.0	1.1469684571718042	-0.5089972034823065	0.0	1.2056695037906484	-0.4608534683769501	0.0	1.0596451782077503	-0.5170975240757002	0.0	1.135355839930307	-0.5007472626496239	0.0	1.1887072405866121	-0.46003506851551523	0.0
86	2.884696016771488	1.0255306781858335	-0.6523302656410631	0.0	1.0268485592927559	-0.6523243154385917	0.0	1.0637627935626965	-0.7602019044831105	0.0	0.9993849111084472	-0.8435135893088048	0.0	1.024772882314967	-0.8631492229004692	0.0	1.0219250808904057	-0.8616481154088792	0.0	0.9848156539386591	-0.8511816364786928	0.0	1.0233070202087802	-0.6490111974432178	0.0	1.0544195746389708	-0.7567839614839433	0.0	1.000740794890566	-0.841398160831371	0.0	1.0378540844923174	-0.8604434713807915	0.0	1.0158972926428398	-0.8595872458839335	0.0	0.9813570259649518	-0.8486840446815326	0.0	1.0738670027020882	-0.5068287439430795	0.0	1.0986571924235866	-0.4335239472478505	0.0	1.110769597762064	-0.4777679692781885	0.0	1.074896050669031	-0.5205411282141729	0.0	1.1506280685914565	-0.5052240124030069	0.0	1.2084664074232674	-0.4562509773319846	0.0	1.0630137924631473	-0.5153402111082442	0.0	1.1373709444147402	-0.5009842822837798	0.0	1.188723836412648	-0.4605091753942798	0.0
87	2.918238993710691	1.0270220505970031	-0.6387619098735509	0.0	1.0276238750601951	-0.6387594434144651	0.0	1.0805595927737472	-0.736629499843493	0.0	1.0039766714245308	-0.8095706961179393	0.0	1.0243076646045617	-0.8346894003176266	0.0	1.0218144147960795	-0.8327504518066282	0.0	0.9887293523250877	-0.8152911466995741	0.0	1.0253238399981892	-0.6354201222086078	0.0	1.0694989169386133	-0.7324555778396695	0.0	1.0047389224802918	-0.8059495835698943	0.0	1.0349546468389954	-0.8304038592539046	0.0	1.0165291879159313	-0.8288019499134821	0.0	0.9851751279237795	-0.8120733508470969	0.0	1.0811278560597746	-0.495518968763154	0.0	1.1038941665648683	-0.4226547819299361	0.0	1.116792176150078	-0.46616280712296887	0.0	1.0828158917506066	-0.5098470823210791	0.0	1.156717142469069	-0.49926998959747365	0.0	1.2151745099000777	-0.4529680955705905	0.0	1.0692644633297164	-0.505035331014116	0.0	1.140247461911612	-0.49718855458003786	0.0	1.1898554560387995	-0.4604682012522582	0.0
88	2.9517819706498947	1.0294800271166664	-0.6197932686308596	0.0	1.0296487946046347	-0.6200783549084169	0.0	1.099648619695419	-0.7058902960824713	0.0	1.0140577540851579	-0.7716445874692464	0.0	1.0317079743149826	-0.8013043013370329	0.0	1.0289945076557814	-0.7992717932498552	0.0	0.9984761714041344	-0.7756027004122861	0.0	1.0280386491029911	-0.6166173653454147	0.0	1.0861796550550569	-0.700808207520625	0.0	1.0125085826612785	-0.7657035861149053	0.0	1.0363188943398065	-0.795046632368733	0.0	1.0203516306392313	-0.7926540590378638	0.0	0.9931904762981107	-0.7698847236965503	0.0	1.0903230514713773	-0.4787416216628108	0.0	1.111590393431753	-0.40629949945898275	0.0	1.1250951178544575	-0.44918588660823744	0.0	1.0923582456036234	-0.49442788816583044	0.0	1.1645444189954373	-0.491624126902213	0.0	1.224501653847647	-0.4496539529972764	0.0	1.0773348596918133	-0.4891301429056863	0.0	1.1434078359800597	-0.48995354546065356	0.0	1.1915765721603746	-0.4586749059701001	0.0
89	2.985324947589098	1.0332153494691367	-0.5985404925137281	0.0	1.0333044397819129	-0.5992494015497818	0.0	1.1186472849866702	-0.6734551949104653	0.0	1.0303107044025652	-0.7376527241876454	0.0	1.048877649696142	-0.7696999787458438	0.0	1.0452608328548991	-0.768029509126834	0.0	1.0147524555245486	-0.7407865352915441	0.0	1.0317786194181795	-0.5955878147447135	0.0	1.1023387301710459	-0.6673217097207135	0.0	1.0241962858186742	-0.7283316818263645	0.0	1.0444309083914571	-0.7608415041905091	0.0	1.029178473120215	-0.7576618076245839	0.0	1.0054108703926803	-0.7309693197814786	0.0	1.1003228989720706	-0.45933816468772004	0.0	1.120429990652987	-0.38720117759295714	0.0	1.1345125622899275	-0.4294740070913858	0.0	1.1023204232706827	-0.476801453297883	0.0	1.1733691178116663	-0.482714997963065	0.0	1.2352460069679372	-0.4454533902965056	0.0	1.0861899573800298	-0.47047089984903906	0.0	1.1467674637374519	-0.4801903162389198	0.0	1.1938489268480978	-0.4544837822452273	0.0
90	3.018867924528301	1.038347376461999	-0.5775029071832873	0.0	1.0386012482725324	-0.57853361839484	0.0	1.1351465962906166	-0.644448328340667	0.0	1.0526591487925006	-0.7137407319331154	0.0	1.0752220194465596	-0.7455122838853199	0.0	1.0703015423105529	-0.7447069536672178	0.0	1.0375937225026428	-0.7174079215374586	0.0	1.0369060420431948	-0.5745701774814757	0.0	1.1163081121192087	-0.6369444413955784	0.0	1.0396012508949368	-0.6997100684293176	0.0	1.059916408592814	-0.7331845370224311	0.0	1.044416817001125	-0.729227205375936	0.0	1.0216325759644607	-0.7020974337503352	0.0	1.110193567583517	-0.4394431914677915	0.0	1.129514632999538	-0.36740159213487594	0.0	1.1441162830018377	-0.4091204028996553	0.0	1.1118982357834293	-0.4586886025199372	0.0	1.1826776131056937	-0.4728307335617266	0.0	1.2467799553512453	-0.44013252250922963	0.0	1.0949513593080409	-0.4511583398872085	0.0	1.1505181043414388	-0.46886796635854194	0.0	1.1969558007608119	-0.4479780862988074	0.0
91	3.0524109014675047	1.0449518835014675	-0.5584405103516421	0.0	1.04541369468612	-0.5594784703137187	0.0	1.1475488810074201	-0.6226016185113536	0.0	1.0799952263132933	-0.7024290691146491	0.0	1.1079755146172026	-0.7316215117186095	0.0	1.1018157660626953	-0.7321158749895404	0.0	1.0660418227403419	-0.7078599254486169	0.0	1.0437103541312283	-0.5550613607295398	0.0	1.1276298797807889	-0.6130532103979875	0.0	1.0582715911821925	-0.6825384716271532	0.0	1.0816501667325291	-0.7152001293516058	0.0	1.0662008023974592	-0.7105289504200782	0.0	1.041409652599904	-0.6862152728026198	0.0	1.1192682428640037	-0.4204771190994111	0.0	1.1382983980023582	-0.3481171125279214	0.0	1.1532711149544648	-0.3895720033890727	0.0	1.1207228754446121	-0.4411331046260084	0.0	1.1921999590879646	-0.46218736006479977	0.0	1.2588703834061221	-0.4338495989695624	0.0	1.1029714963007307	-0.4325267920891364	0.0	1.1547377647520791	-0.4568364633148001	0.0	1.2011201815914967	-0.4396931038196855	0.0
